<?xml version="1.0" encoding="UTF-8" standalone="no"?>
<svg width="13px" height="12px" viewBox="0 0 13 12" version="1.1" xmlns="http://www.w3.org/2000/svg" xmlns:xlink="http://www.w3.org/1999/xlink" xmlns:sketch="http://www.bohemiancoding.com/sketch/ns">
    <!-- Generator: Sketch 3.2 (9961) - http://www.bohemiancoding.com/sketch -->
    <title>add_icon</title>
    <desc>Created with Sketch.</desc>
    <defs></defs>
    <g id="Streams" stroke="none" stroke-width="1" fill="none" fill-rule="evenodd" sketch:type="MSPage">
        <g id="Categories-Page-3" sketch:type="MSArtboardGroup" transform="translate(-841.000000, -635.000000)" fill="#FFFFFF">
            <g id="Looks-3" sketch:type="MSLayerGroup" transform="translate(231.000000, 359.000000)">
                <g id="Look-in-Feed-4" transform="translate(336.000000, 0.000000)" sketch:type="MSShapeGroup">
                    <g id="Hype-4" transform="translate(10.000000, 268.000000)">
                        <g id="add_icon" transform="translate(264.000000, 8.000000)">
                            <path d="M11,8 L11,9 L11.6720772,9 C12.4054687,9 13,8.42331849 13,7.72960831 L13,1.27039169 C13,0.568773732 12.4044018,0 11.6720772,0 L4.32792279,0 C3.59453128,0 3,0.57668151 3,1.27039169 L3,2 L3,2 L4,2 L4,1.57359816 C4,1.26196987 4.2773999,1 4.6148415,1 L11.3851585,1 C11.7252332,1 12,1.25822905 12,1.57359816 L12,7.42640184 C12,7.73803013 11.7226001,8 11.3851585,8 L11,8 Z" id="Rectangle-10"></path>
                            <path d="M0,4 L0,11 C0,11.4312263 0.595598221,12 1,12 L9,12 C9.40546872,12 10,11.4233185 10,11 L10,4 C10,3.56877373 9.40440178,3 9,3 L1,3 C0.594531285,3 0,3.57668151 0,4 Z M8,4 C8.72523315,4 9,4.25822905 9,5 L9,10 C9,10.7380301 8.7226001,11 8,11 L2,11 C1.27476685,11 1,10.741771 1,10 L1,5 C1,4.26196987 1.2773999,4 2,4 L8,4 Z" id="Rectangle-9"></path>
                        </g>
                    </g>
                </g>
            </g>
        </g>
    </g>
</svg>